<svg xmlns="http://www.w3.org/2000/svg" viewBox="0 0 64 64" id="mobile"><path d="M41 60H23a8 8 0 0 1-8-8V12a8 8 0 0 1 8-8h18a8 8 0 0 1 8 8v40a8 8 0 0 1-8 8zM23 8a4 4 0 0 0-4 4v40a4 4 0 0 0 4 4h18a4 4 0 0 0 4-4V12a4 4 0 0 0-4-4z"></path><path d="M32 54a1.75 1.75 0 0 1-.39 0 2.38 2.38 0 0 1-.38-.11 2.23 2.23 0 0 1-.34-.19 1.77 1.77 0 0 1-.3-.24 1.83 1.83 0 0 1-.25-.31 1.67 1.67 0 0 1-.19-.34 1.8 1.8 0 0 1-.11-.38A1.7 1.7 0 0 1 30 52a2 2 0 0 1 .59-1.41 1.43 1.43 0 0 1 .3-.25 2.28 2.28 0 0 1 .34-.19 1.65 1.65 0 0 1 .38-.11 2 2 0 0 1 .78 0 1.65 1.65 0 0 1 .38.11 2.23 2.23 0 0 1 .34.19 1.43 1.43 0 0 1 .3.25A2 2 0 0 1 34 52a2 2 0 0 1-2 2zm24 1H45V10h11a8 8 0 0 1 8 8v29a8 8 0 0 1-8 8zm-7-4h7a4 4 0 0 0 4-4V18a4 4 0 0 0-4-4h-7zm-30 4H8a8 8 0 0 1-8-8V18a8 8 0 0 1 8-8h11zM8 14a4 4 0 0 0-4 4v29a4 4 0 0 0 4 4h7V14z"></path></svg>